<svg id="Layer_1" data-name="Layer 1" xmlns="http://www.w3.org/2000/svg" viewBox="0 0 900 600"><defs><style>.cls-1,.cls-3{fill:#50b4e6;}.cls-2{fill:#0000c0;}.cls-3{font-size:813.14px;stroke:#0000c0;stroke-miterlimit:10;stroke-width:10px;font-family:MyanmarText, Myanmar Text;}</style></defs><title>Artboard 1</title><g id="Layer_2" data-name="Layer 2"><rect class="cls-1" width="900" height="600"/></g><path class="cls-2" d="M424.49,145.63l.71,1.18,1.4.44,1.26,0c3-7.91-3.92-7.91-9.41-8.91l-2.77.59.47,2.1Zm67.38,10.49,1.13.16c2.82-1.59,6.34,1.92,7.51-2.76-3.52,0-5.86-1.17-9.37,0C491.14,153.52,491.14,155.86,491.87,156.12Zm-25.24-2.54,4.25-.07c-.84-3.5-9-5.85-9-1.16C460.67,153.52,464.19,153.52,466.63,153.57ZM383.33,86.72C381,90.23,381,84.38,378.7,86l-1,.46c-3.77,5-13.14,6.12-12,14.33C374,99.61,378.64,93.75,383.33,86.72Zm28.74,43.51c-6-3-6,3-6.74,8.09l1.9,2C412.06,139.25,415.07,133.24,412.06,130.23Zm-25.22-47a8.1,8.1,0,0,1-1.52,3.68,1.7,1.7,0,0,1,2.69,1c0,4.69-7,1.17-7,5.86,1.17,0,2.34,0,1.17,1.17s-3.52,1.17-4.69,2.34h4.69c-.59,1.76-2.64,2.05-4.39,2.64s-3.22,1.45-2.64,4.36a14.1,14.1,0,0,1,4.76-2.36c5.05-1.48,10.77-.82,15.16-3.46-1.17,0-1.17-1.17-2.34-1.17,2.34-1.17,4.69-2.34,3.52-5.86-1.17,0-1.17,1.17-2.34,1.17,2.34-4.69-2.34-10.55,2.3-13.61l1-1.54c-.93-.08-3.28-.08-4.45-.08,1.17-1.17,2.34-1.17,3.52-2.34-5.86,0-8.2,5.86-12.89,8.2C384.5,85.55,386.84,82,386.84,83.2Zm-2.34,4.69a7.2,7.2,0,0,0,.82-1A2.69,2.69,0,0,0,384.5,87.89Zm272,137.4-2.66-.91-1.09,1.75-.06,3.75.14,1.34.54.35,1.24-1,1.28-.33.62,1,1.1,3.5,2.16,4.06,1.16.12-1.2-6.46h.53l.61.62.42-.22,0-1.46-.74-3.63-2.24-7.29-1.13-.81.1,2.1.22,2.25-.3,1.07ZM655.41,267l1.86.47,1.69-.62,1-2,.77-2.7-.55-.76c-2.2.77-5.19,1.61-7.41,2.3l-1.48,2.15-.55,3.44,0,3.85-.53,4.16-.93,3.88-.17,3.48.62,3.26.25,3.81-.22,3.92.4,2.75,1.26.11.79-3.59-.37-7.23.71-2.08.82,2.15.54,2.82,1.44,1.51,1.46-1.69.06-4.2-1.53-4.79-.06-1.54.57-1.67,1.72-3.48-.14-2.09-1.6,1-1.6,1.77-1.41-1-.46-3.62,1.08-3.36Zm2.89,38.27-1.28.05-4,2.19-2.66-.57-1.26,1.37-.5,2.63,1,1.26,4.18-1.13,4.84-4.32Zm-8-3.09-5.18.15-2.56-.33-1.8,2.08,1.85,2.79,3.95.49,1.27-.56,2.32-3.12Zm13.81-49.76-.52-2.07-.47,1-.14,3v3.15l.31,5.84,0,3,.19,2.8.33.72.35-.25.13-1.33-.08-1.49,0-2.81.57-1.62.68-.93.26-2.32-1.16-3.56Zm-4.37,56.5L656.95,312l-1.42,2.27-.67,3.56.84,2,1.41-1,2.67-4.51,5.4-6.83-2.89,0Zm13.74-36.82-.41.35-.41,3.06-.44,3.68-.53,1.65-.44-1.39-.15-3.71.17-4.25h.06l-.47-3.1-.74-1.61-.38.1-.78,1-1.77-.19-.45.34-.21,1.54.19,1.6.67,3.49.15.18.12.32.14.23.29.23.12.3.12.66.14.52,1.27,0,.19.35-.15,1.3-.28,1-.5.09-.21.48v1.67l0,.55.07.53,0,.62-.06,2.27v1l.19.17.24-.46.25-2.17.24-.71.24-.39.22,0,.22.3.08,1.06,0,1.74,0,.69,1.09.38.16.92.1.1.05.43,0,.38,0,.22h.1v.73l0,.49-.41,4.68-.24,3L671.4,300l-.11.79-.09.72,0,.27-.06.62-.35.41-.21.46-.28,1.4-.3,2.75.07,1.14.15-.26.26-1.34.2-.77.07.08v.82l-.44,2.89-.16,1.18,0,.44.08-.4A248.19,248.19,0,0,0,674,277.36ZM641.76,197.2l1.7,4.43.27,4.12.76,2.52,1.19,1.81.67-.32-.22-4.06.28-1.76,1.81.25,2,1.41.74-2.24-1.45-3.57-2.14.06-2.52-1.94-1.68-4.8-1-6.07-2.08-4.42-2.48-2.77-.85-.19-.3,1,.52,2,.68,2.11.77,4.06,1.12,4.17Zm7.84,12.74-.54.82v1l.61,3.12.78.47.7-.39.38-.17.17-.68-.18-1.09-.27-1.12-.76-1.48Zm3.42.33,1.64,7.13.66.81.37-.55-.32-1.67-.52-1.85-.36-1.83,0-1.43-.12-1-.26-1-.85-1.48-.73-.4h-.66l-.27,1,.62,1.25Zm-11.65,76.4,2.52-1.87,1.06-4.7q0-1.81,0-3.61l.37-1.57,1.19-3.19.44-2,.44-4.17,1.33-2.41,1-2.66-.52-2.22-2.25-3.78-1.1-2.48.62-4.43,1.41-3.91-.86-3.14-5.73-4.65L639.35,238l-.57,6.65-.31.69a344.41,344.41,0,0,1,1.69,40.77Zm-51.48,75L588,357.51l-4.1-.42-2.63,1.69-1.3,2.66L569.17,375.1l-11.51,6.45-1.78,2.06L554.57,386l-.63,2.32.71,15.11-5.54,14-.5,2.43-.41,5,.38,2.09,4.32,4.89,6.39,1.06,6.6-4.79L569.44,417l14.13-29.35,4.17-18.15,1-2.11.74-2.23.18.26q.22-1.89.42-3.78l-.22.69Zm-126.18-303h0ZM430.2,0c-165.69,0-300,134.31-300,300s134.31,300,300,300,300-134.33,300-300S595.88,0,430.2,0Zm0,546.61a245.48,245.48,0,0,1-140.83-44.16.34.34,0,0,1-.06-.2c0-.07.2-.11.4-.08s.39,0,.43,0-.27-.35-.69-.66a15.28,15.28,0,0,0-1.63-1,11.34,11.34,0,0,0-1.34-.58c-.18-.05-.83-.32-1.63-.68a248,248,0,0,1-36.2-32.33,7.33,7.33,0,0,0-.54-.8,11.31,11.31,0,0,0-1.68-1.71l-.12-.08q-2-2.23-3.93-4.5a.79.79,0,0,0,.67-1.18,19.82,19.82,0,0,0-2.34-3.44c1.08-.41,3.53-.41,4.76-2.76,1.24-7-2.43-11.71-4.88-17.57,1.23,0,2.45,1.17,3.68,2.34a26.32,26.32,0,0,0,3.68-10.76,37.84,37.84,0,0,0,.25-5.51c-.2-10.7-8.77-20.06-6.3-29.44,3.71-14.07,11.09-27,13.83-41.74.65-1.36,1.4-2.69,2.15-4,1.48-2.66,2.91-5.34,3.31-8.36a24.24,24.24,0,0,0,.51-7.14,30.7,30.7,0,0,0-1-5.41,15.41,15.41,0,0,0-1.54-3c-.52-.74-3.83-3.24-7.36-5.54s-6.44-4.2-6.47-4.21-.06-.08-.07-.15a2.36,2.36,0,0,0-.34-.56,5.75,5.75,0,0,1-.54-.9c-.12-.26-.32-.48-.44-.5a2.34,2.34,0,0,0-.46,0,1.13,1.13,0,0,1-.51-.1,3,3,0,0,1-.51-.33,3.69,3.69,0,0,0-1.17-.38,3.51,3.51,0,0,1-1.29-.49,1.44,1.44,0,0,0-.59-.33,1.51,1.51,0,0,0-.45,0c-.12,0-1.9,0-4,0a21.37,21.37,0,0,0-4.09.14,2,2,0,0,0-.43,1.23,1.9,1.9,0,0,1-.44,1.22,1.84,1.84,0,0,1-.77.23.78.78,0,0,1-.62-.39c1.1-6-3.79-13-9.93-10.67v3.52c-4.91-1.16,1.24-5.86-2.44-7-4.91-1.16-2.46,4.69-6.15,5.87,4.93-10.56,3.72-19.93-2.4-29.3-3.67-8.2-13.48-11.7-13.69-22.52a9.73,9.73,0,0,0-1.29-2.79c-.29-.27-1.06,0-1.69.65a4.65,4.65,0,0,1-1.49,1.14c-.18,0-.33-.35-.33-.78a35.41,35.41,0,0,1,.49-3.55c.06-.35.11-.69.15-1C215.13,134.92,313.14,53.38,430.2,53.38a248.42,248.42,0,0,1,38,2.92,31.3,31.3,0,0,0-6.37,2.3,18.55,18.55,0,0,0-3.09,1,6.9,6.9,0,0,1-1.6.19c2.07.69,3.73-.25,5.24-1.13a7.52,7.52,0,0,0-1.07.19c.25-.07.5-.16.76-.23h.38l.31-.18.14,0c1.57-.37,3.19-.66,4.8-1,1.19,0,2.38.3,3.42.29-.95.52-1.89,1-2.84,1.47-1.76.58-2.93,1.76-5.27,2.93h3.52l-2.34,2.34h1.17c-3.52,1.17-5.86,1.17-9.37,1.17,1.17-2.34,4.69,0,7-2.34-10.55,0-19.92,2.34-30.32,5.08q-2.34.84-4.61,1.84-2.73,1.2-5.36,2.65c-4.24,2.15-11.27,5.67-8.93,8s4.69,2.93,7,3.81a14.23,14.23,0,0,1,3.5,1.8c1.18,1.43,2.36,2.6,3.53,3.77,7,1.17,12.89-7,7-12.89a35,35,0,0,0,4.83-4.54,12.43,12.43,0,0,1,5.71-3.66c-3.52,1.17-3.52,5.86-2.34,7,2.34,1.76,5,.59,7.76-.73s5.71-2.78,8.64-1.61a10.14,10.14,0,0,1-4.14,2c-1.72.51-3.63,1-5.24,1.54-3.52,0-4.69,4.69-2.34,7-1.17-1.17-3.52-1.17-4.69-1.17-1.17,11.72-15.24,12.89-23.44,8.2,1.17,0,3.52,1.17,4.69-1.17,0-2.34-1.17-2.34-3.52-1.17V85.55c-4.69-1.17-4.69,4.69-4.69,8.2-1.17,0-3.52-1.17-4.69-1.17-9.77,6.84-18.72,10.42-28.89,14.13-2,.74-4.12,1.49-6.27,2.2,5.86,2.41,5.86,13,0,11.79-15.23-4.69-32.81-8.2-35.16,10.55,0,2.34-3.52,5.86-1.17,8.2,9.38,7,22.26,7,32.81,2.34,3.52-1.17,5.86-7,10.07-8.17A30.43,30.43,0,0,0,388,131a11.66,11.66,0,0,0,4-4.66,15.06,15.06,0,0,1,6.69-3.06,61.94,61.94,0,0,1,7.72-.89c1.8-.15,3.66-.32,5.55-.65,7.68,7.19,20.56,15.91,25.25,26.46,1.17-3.52,4.52-8.28,9.21-3.59-4.69-8.2-22.09-15.68-23.26-27.4,11.72,8.2,23.44,14.06,31.64,28.12,1.17,1.17,4.69,2.34,7,1.17,3.51-2.34,2.64-4.1,1.47-5.86s-2.64-3.52-.29-5.86c1.17-2.34,2.05-1.76,3-.25,7.52,16.66,29.78,8.46,38,15.49,11.72,9.38-7,21.09-21.09,18.75-8.2-2.34-15.23-3.52-21.77-6L457,161.63a11.3,11.3,0,0,0-4.71.57,5,5,0,0,0-2.32,2.67,11.48,11.48,0,0,0-.54,3.08,3.09,3.09,0,0,1-1.49,2.2c-.85.53-3.1.16-5-.82a38.73,38.73,0,0,0-4.45-2.05,48.57,48.57,0,0,1-5.14-2.44,31.22,31.22,0,0,0-4.32-1.77c-8.16-.18-17.53-6-12.84-15.41a49,49,0,0,0-23.88-2.49c-2,.26-4,.61-6,1C375.12,150,364.58,150,352.86,150c-8.2,0-14.06,9.38-17.79,16.85a41,41,0,0,1-2.86,3.75,36.94,36.94,0,0,1-14.33,10.63,41.7,41.7,0,0,0-6.16,3.76c-15.08,11.12-19.7,30.56-24.07,49a15.87,15.87,0,0,0-1.23,2.34,8.83,8.83,0,0,0-.19,3.38,18.5,18.5,0,0,1-.16,4.56,31.05,31.05,0,0,0-.45,3.48,2.9,2.9,0,0,0,.56,1.78,2.67,2.67,0,0,0,1.49.72,24.83,24.83,0,0,1,4.07,5.24,50.68,50.68,0,0,1,2.87,5.77c9,30.52,43,28.17,67,18.64l5.79-1.23,5.38-1.14c4.13.55,7.61,1.4,7.74,1.89a5.17,5.17,0,0,0,.62,1.43,7.29,7.29,0,0,0,.89,1,5.56,5.56,0,0,1,.85,1,9.79,9.79,0,0,1,.6,1.2,4.74,4.74,0,0,0,1.39,1.45c.63.45,3.7.77,6.81.72,4.55-.3,6.89,2,9.24,5.56,4.69,10.55-3.52,22.27,6.48,30.12a29.81,29.81,0,0,1,2.68,3.5c1.22,1.76,2.68,4,4.06,6.2,2.78,4.47,5.46,11.06,6,14.63s1.47,7.43,2.16,8.57.91,4,.51,6.32a24.37,24.37,0,0,1-1.24,4.2c-5.38,7.32-8.89,16.7-7.72,24.9,4.69,14.06,14.06,27,16.94,41.64v1.59a8.18,8.18,0,0,0,1.66,3.06,9.75,9.75,0,0,1,1.27,1.26,5.59,5.59,0,0,0,.78.86,4.72,4.72,0,0,0,.65.48,22.74,22.74,0,0,1,1.6,2.91,32.88,32.88,0,0,0,3.2,5,16.35,16.35,0,0,1,2.58,5.14c.42,1.6.56,3.21.31,3.59a4.8,4.8,0,0,0-.61,1.5,4.45,4.45,0,0,0,.19,1.85,11.83,11.83,0,0,0,1.92,2.84,22.52,22.52,0,0,0,2.63,2.59,9.77,9.77,0,0,0,4.06.91,19.46,19.46,0,0,0,4.11-.16,5.69,5.69,0,0,0,2-1.1,17,17,0,0,0,1.7-1.87c.45-.59,6-1.25,12.39-1.47l19-9.18c3.2-3.29,6.3-7,6.89-8.24a17.34,17.34,0,0,1,4.74-4.89,12.23,12.23,0,0,0,4.39-6.61,14.12,14.12,0,0,1,2.15-5.57c2.73-3.34,8.59-3.34,8.59-6.86a74.38,74.38,0,0,1,15.65-34.4q1.67-2.75,3.17-5.58c6-11.31,9.88-23.57,9-36.27-.49-1.45-.95-2.86-1.33-4.24-6.76-24.92,13.64-40.18,37.27-50.48.6-1.46,1.21-3,1.82-4.63,1.84-4.84,3.75-10.21,5.56-15.35l1.76-5c3.27-3.4,2.1-8.09,2.1-11.6-7,3.52-14.06,2.34-20.81,3.64l-4.5.38a15.07,15.07,0,0,1-3-1.09c-.5-.3-3.89-2.2-7.43-3.8-3.22-1.47-3.85-3.2-6.15-4.69-1.15-.74-3-5.3-4.39-6.45s-3.51-4.28-4.39-5.27c-4.25-5.79-7.91-10.84-11.43-17.87-4.69-7-10.55-14.06-14.55-22.41q-1.69-2.28-3.48-4.47t-3.67-4.3a78.85,78.85,0,0,1-6.16-6.38c-.84-.71-.51-1.73.74-2.29,7.19-3.51,4.85,7,10.68,6.47q2,2,3.9,4t3.76,4.16q2.47,2.81,4.85,5.72c6.27,7.77,12.13,16,18.29,24.08a24.43,24.43,0,0,1,2.7,4,49.26,49.26,0,0,1,2.66,5.43c3.73,21.13,27.16,10.58,40.06,5.89,7-3.52,15.23-7,16.41-15.23,3.52-16.41-9.37-25.78-19.92-35.16-1.17,9.38-11.72,9.38-15.1,2.35a17.8,17.8,0,0,1-2.48-3.52c0,1.17-1.17,2.34-1.17,3.52-2.34-5.86-7-11.72-10.55-16.41,5.86,0,10.55,3.52,16.9,6.29l5.82,2.6c11.64,5.17,23.46,10.1,38.22,8.69,2.93-.59,4.69,1.76,5.71,5.13a30.41,30.41,0,0,1,1,5.58c.2,2,.3,3.92.33,5.67a48,48,0,0,0,3.54-5.74,45.48,45.48,0,0,0,2.64-6.14c4.08-11.76,3.46-25,.07-37.48A245.53,245.53,0,0,1,676.81,300C676.81,436.19,566.4,546.61,430.2,546.61ZM465.36,57.42a12.91,12.91,0,0,1-2.41.88A5.08,5.08,0,0,1,465.36,57.42Zm-2.91,1.17-.06,0c.2,0,.4,0,.63,0Z"/><g id="Layer_3" data-name="Layer 3"><text class="cls-3" transform="translate(256.1 589.28)">?</text></g></svg>