<?xml version="1.0" encoding="utf-8"?>
<!-- Generator: Adobe Illustrator 21.1.0, SVG Export Plug-In . SVG Version: 6.00 Build 0)  -->
<svg version="1.1" id="Layer_1" xmlns="http://www.w3.org/2000/svg" xmlns:xlink="http://www.w3.org/1999/xlink" x="0px" y="0px"
	 viewBox="0 0 2000 2000" style="enable-background:new 0 0 2000 2000;" xml:space="preserve">
<style type="text/css">
	.st0{opacity:0.8;}
	.st1{filter:url(#Adobe_OpacityMaskFilter);}
	.st2{mask:url(#SVGID_1_);}
</style>
<g class="st0">
	<defs>
		<filter id="Adobe_OpacityMaskFilter" filterUnits="userSpaceOnUse" x="0" y="0" width="2000" height="2000">
			<feFlood  style="flood-color:white;flood-opacity:1" result="back"/>
			<feBlend  in="SourceGraphic" in2="back" mode="normal"/>
		</filter>
	</defs>
	<mask maskUnits="userSpaceOnUse" x="0" y="0" width="2000" height="2000" id="SVGID_1_">
		<g class="st1">
			<image style="overflow:visible;" width="2004" height="2004" xlink:href="39AE680.jpg"  transform="matrix(1 0 0 1 -2 -2)">
			</image>
		</g>
	</mask>
	<g class="st2">
		<path d="M0.5,1999.5V0.5h1999v1999H0.5z M999,928.5c-38.9,0-70.5,31.6-70.5,70.5c0,38.9,31.6,70.5,70.5,70.5
			c38.9,0,70.5-31.6,70.5-70.5C1069.5,960.1,1037.9,928.5,999,928.5z"/>
		<path d="M1999,1v1998H1V1H1999 M999,1070c39.1,0,71-31.9,71-71c0-39.1-31.9-71-71-71c-39.1,0-71,31.9-71,71
			C928,1038.1,959.9,1070,999,1070 M2000,0H0v2000h2000V0L2000,0z M999,1069c-38.7,0-70-31.3-70-70c0-38.7,31.3-70,70-70
			c38.7,0,70,31.3,70,70C1069,1037.7,1037.7,1069,999,1069L999,1069z"/>
	</g>
</g>
</svg>
